<svg width="58" height="37" viewBox="0 0 58 37" fill="none" xmlns="http://www.w3.org/2000/svg">
<path opacity="0.4" d="M50.7322 27.6634C50.6837 27.6205 50.6352 27.5775 50.5895 27.5373L50.7794 27.5785C50.7655 27.6086 50.7488 27.636 50.7322 27.6634Z" fill="white"/>
<path d="M49.8474 28.4251L49.8146 28.4364L49.7407 28.4727L41.858 31.8162C41.776 31.8498 41.6912 31.8808 41.6065 31.9117C41.5682 31.9285 41.5245 31.9399 41.4808 31.9568C41.4398 31.9709 41.3988 31.985 41.3606 31.9963C41.2978 32.0161 41.2377 32.0332 41.1749 32.053C41.153 32.0587 41.1339 32.0671 41.1148 32.07C41.0356 32.09 40.9565 32.11 40.8801 32.1272C40.8773 32.13 40.8719 32.1301 40.8719 32.1301C39.7777 32.3745 38.6495 32.2873 37.6041 31.8644L37.5852 31.8565L32.9188 29.9884L32.6886 29.8959L29.0703 28.4535L25.5964 29.9482L24.5542 30.3988L20.6864 32.067C19.6307 32.515 18.5 32.6292 17.414 32.4136C17.4114 32.411 17.4059 32.411 17.4032 32.4083C17.3245 32.3957 17.2458 32.3776 17.1698 32.3567C17.1481 32.3515 17.1264 32.3463 17.1047 32.3412C17.045 32.3255 16.9853 32.3099 16.923 32.2916C16.8823 32.2785 16.8416 32.2654 16.801 32.2523C16.7576 32.2365 16.7197 32.226 16.6763 32.2102C16.595 32.184 16.511 32.1496 16.4298 32.1179L9.85441 29.4591L8.57619 28.941L8.52202 28.9199C8.01289 28.7137 7.62612 28.2884 7.46921 27.7569L7.24946 27.0194L7.21285 26.8946L4.8824 19.0282C4.72805 18.5103 4.96614 17.9441 5.45365 17.6825L12.0024 14.1563L12.9226 13.6609L13.3554 13.4271C13.8594 13.1544 14.2753 12.7385 14.5507 12.2318L14.7901 11.7881L15.2994 10.8377L18.8061 4.33002C19.0705 3.84519 19.6339 3.60442 20.1518 3.75877L27.3594 5.89302L28.1349 6.1232L28.6203 6.26706C29.1626 6.42928 29.7478 6.41955 30.2941 6.2443L30.7557 6.09999L31.1901 5.96144L38.8168 3.5353C39.3386 3.3685 39.8964 3.59585 40.1492 4.07448L43.9852 11.4303L43.9958 11.452L44.2166 11.8766C44.4773 12.3742 44.8834 12.7802 45.3837 13.0436L45.8271 13.2778L46.5952 13.6768L53.183 17.1138C53.6617 17.3611 53.889 17.9244 53.7222 18.4462L51.5957 25.1387L51.163 26.5018L50.9283 27.2366C50.7587 27.772 50.3616 28.2067 49.8474 28.4251Z" fill="url(#paint0_linear_209_394)"/>
<path d="M50.9283 27.2366L51.163 26.5018L51.5957 25.1387L53.7222 18.4462C53.889 17.9244 53.6617 17.3611 53.183 17.1138L46.5952 13.6768L45.8271 13.2778L45.3837 13.0436C44.8834 12.7802 44.4773 12.3742 44.2166 11.8766L43.9958 11.452L43.9852 11.4303L40.1492 4.07448C39.8964 3.59585 39.3386 3.3685 38.8168 3.5353L31.1901 5.96144L30.7557 6.09999L30.2941 6.2443C29.7478 6.41955 29.1626 6.42928 28.6203 6.26706L28.1349 6.1232L27.3594 5.89302L20.1518 3.75877C19.6339 3.60442 19.0705 3.84519 18.8061 4.33002L15.2994 10.8377L14.7901 11.7881L14.5507 12.2318C14.2753 12.7385 13.8594 13.1544 13.3554 13.4271L12.9226 13.6609L12.0024 14.1563L5.45365 17.6825C4.96614 17.9441 4.72805 18.5103 4.8824 19.0282L7.21285 26.8946L7.24946 27.0194L7.46921 27.7569C7.62612 28.2884 8.01289 28.7137 8.52202 28.9199L8.57619 28.941L9.85441 29.4591L16.4298 32.1179C16.511 32.1496 16.595 32.184 16.6763 32.2102C16.7197 32.226 16.7576 32.2365 16.801 32.2523C16.8416 32.2654 16.8823 32.2785 16.923 32.2916C16.9853 32.3099 17.045 32.3255 17.1047 32.3412C17.1264 32.3463 17.1481 32.3515 17.1698 32.3567C17.2458 32.3776 17.3245 32.3957 17.4032 32.4083C17.4059 32.411 17.4114 32.411 17.414 32.4136C18.5 32.6292 19.6307 32.515 20.6864 32.067L24.5542 30.3988L25.5964 29.9482L29.0703 28.4535L32.6886 29.8959L32.9188 29.9884L37.5852 31.8565L37.6041 31.8644C38.6495 32.2873 39.7777 32.3745 40.8719 32.1301C40.8719 32.1301 40.8773 32.13 40.8801 32.1272C40.9565 32.11 41.0356 32.09 41.1148 32.07C41.1339 32.0671 41.153 32.0587 41.1749 32.053C41.2377 32.0332 41.2978 32.0161 41.3606 31.9963C41.3988 31.985 41.4398 31.9709 41.4808 31.9568C41.5245 31.9399 41.5682 31.9285 41.6065 31.9117C41.6912 31.8808 41.776 31.8498 41.858 31.8162L49.7407 28.4727L49.8146 28.4364L49.8474 28.4251C50.3616 28.2067 50.7587 27.772 50.9283 27.2366ZM44.6771 13.8739C44.9477 13.7754 45.2332 13.7911 45.4793 13.9215L52.8351 17.7574C53.0137 17.8478 53.0956 18.0509 53.0334 18.2422L50.4772 26.2787C50.3923 26.5518 50.1992 26.7718 49.9419 26.8946C49.6846 27.0175 49.3988 27.029 49.1388 26.9233L40.9061 23.5931C40.5757 23.461 40.4224 23.0819 40.5652 22.7454L41.0328 21.6432C41.0412 21.624 41.0495 21.6103 41.0552 21.5939L44.0936 14.4251C44.2082 14.1653 44.4147 13.9696 44.6771 13.8739ZM43.4274 14.1556C43.4274 14.1556 43.4245 14.1638 43.4218 14.1665L40.3667 21.3681C39.8433 22.5799 38.893 23.5356 37.6893 24.0725L30.3427 27.1864C30.2279 27.2259 30.1524 27.167 30.1229 27.1374C30.0933 27.1078 30.0263 27.0242 30.0767 26.8985L33.1486 19.6585C33.1486 19.6585 33.1598 19.6312 33.1627 19.6175C33.7028 18.3729 34.686 17.4005 35.9332 16.8686L36.9643 16.4344L43.102 13.8302C43.3126 13.7433 43.5169 13.9477 43.4274 14.1556ZM30.9789 6.78035L39.0181 4.22681C39.1683 4.17875 39.3257 4.2204 39.4305 4.32528C39.4574 4.35217 39.4843 4.3845 39.5029 4.41965L43.3415 11.7782C43.4692 12.027 43.4848 12.3126 43.3891 12.5804C43.2879 12.8483 43.0895 13.0575 42.8269 13.1695L35.6663 16.2051L34.5094 16.6951C34.1757 16.8352 33.7966 16.6819 33.6618 16.3488L33.2124 15.2385C33.2124 15.2385 33.2045 15.2195 33.2019 15.2114L30.3369 8.12145C30.2312 7.86147 30.2428 7.5756 30.3656 7.31833C30.4912 7.05831 30.7084 6.86794 30.9789 6.78035ZM29.6615 8.39894L29.6668 8.40431L32.5396 15.5241C33.0283 16.7564 33.0148 18.109 32.4992 19.3506C32.4909 19.3643 32.4853 19.3753 32.4824 19.3889L29.4105 26.6289L29.4132 26.6316C29.3574 26.752 29.2511 26.7668 29.2075 26.7674C29.164 26.7679 29.058 26.7555 29.005 26.6364L26.1084 19.4653C26.1031 19.449 26.0951 19.4355 26.0871 19.422C25.6039 18.1841 25.6257 16.8178 26.1523 15.5706L29.1933 8.40454C29.2829 8.19665 29.5768 8.19313 29.6615 8.39894ZM28.283 27.1594C28.2527 27.1897 28.1649 27.2561 28.0457 27.2085L20.8745 24.3119C20.8745 24.3119 20.8474 24.3013 20.8312 24.2961C19.6045 23.7856 18.6527 22.8282 18.1504 21.5933L15.2882 14.5006L15.2829 14.4953C15.201 14.2867 15.4103 14.0774 15.6189 14.1592C15.6216 14.1619 15.6243 14.1646 15.627 14.1619L22.7602 17.0481C23.976 17.5533 24.9144 18.4972 25.4169 19.7103C25.4223 19.7211 25.4275 19.7374 25.4328 19.7536L28.3349 26.9193C28.3797 27.0412 28.3133 27.1291 28.283 27.1594ZM19.4444 4.65981C19.539 4.48452 19.7442 4.39771 19.934 4.4553L27.9143 6.81704C28.0716 6.86414 28.2094 6.94685 28.3223 7.05979C28.4003 7.13777 28.4672 7.23221 28.5149 7.34049C28.6316 7.59489 28.6363 7.88057 28.5243 8.14315L24.9987 16.4552C24.8532 16.789 24.4703 16.9514 24.1399 16.8193L23.0459 16.3752C23.0459 16.3752 23.0161 16.362 22.9998 16.3567L15.8991 13.4865C15.6445 13.3807 15.4565 13.1761 15.3616 12.916C15.2696 12.6477 15.2948 12.3644 15.4284 12.1124L19.4444 4.65981ZM9.26133 27.4008C9.00151 27.51 8.71852 27.5079 8.46143 27.3886C8.20703 27.2719 8.02181 27.0591 7.94342 26.7879L5.57624 18.8076C5.52134 18.6205 5.6109 18.4126 5.7862 18.318L13.236 14.3048C13.488 14.1711 13.7713 14.146 14.0396 14.238C14.1778 14.2881 14.3048 14.3655 14.4043 14.465C14.493 14.5537 14.5652 14.6644 14.6154 14.7863L17.4803 21.8762L17.9402 23.019C18.0723 23.3495 17.9125 23.7351 17.5761 23.8779L16.4575 24.3512C16.4575 24.3512 16.4356 24.3569 16.4247 24.3624L9.26133 27.4008ZM25.3241 29.2847L24.2846 29.7326C24.2846 29.7326 24.2764 29.7354 24.2737 29.7382L20.4168 31.4008C20.4168 31.4008 20.4113 31.4063 20.4086 31.409C19.7795 31.6724 19.1249 31.7999 18.4746 31.7941C18.4718 31.7969 18.4664 31.7969 18.4637 31.7942C18.1589 31.7924 17.8627 31.7606 17.5722 31.7015C17.4989 31.6888 17.4284 31.6733 17.3605 31.6551C17.347 31.6525 17.3307 31.6473 17.3171 31.6447C17.2601 31.6318 17.2032 31.6134 17.1462 31.6005C17.1164 31.5872 17.0866 31.5794 17.0541 31.5689C17.0134 31.5558 16.9727 31.5427 16.9321 31.5296C16.8616 31.5032 16.7858 31.4769 16.7181 31.4478L9.52257 28.5378C9.31677 28.4532 9.32029 28.1593 9.53086 28.0724L9.53906 28.0696L16.7297 25.02C17.9687 24.5018 19.3213 24.4883 20.5482 24.9716C20.5645 24.9769 20.5753 24.9822 20.5916 24.9874L27.7628 27.884L27.9063 27.9449C28.0038 27.9818 28.1013 28.0188 28.2016 28.0475L25.3268 29.2874L25.3241 29.2847ZM48.8557 28.0669L41.5912 31.1472C41.5173 31.1781 41.4462 31.2061 41.3697 31.2343C41.3369 31.2455 41.3014 31.2596 41.2631 31.2709C41.2276 31.2849 41.1894 31.2963 41.1566 31.3076C41.102 31.3245 41.0501 31.3388 40.9982 31.353C40.9791 31.3614 40.96 31.3643 40.9408 31.3727C40.8753 31.3898 40.8071 31.4043 40.7416 31.4214C40.7361 31.4214 40.7307 31.4215 40.7279 31.4243C40.4387 31.4876 40.1417 31.5265 39.8422 31.5356C39.8422 31.5356 39.8313 31.5357 39.8286 31.5384C39.2623 31.5561 38.7 31.473 38.1553 31.2864C38.0658 31.2575 37.9791 31.2259 37.8897 31.1916L33.1719 29.3051L32.9905 29.2338L30.0493 28.0553C30.1994 28.0181 30.3415 27.9675 30.481 27.9086L30.6068 27.8582C30.6068 27.8582 30.6232 27.8525 30.6314 27.8497L37.8713 24.7778C37.8986 24.7666 37.9287 24.7526 37.9588 24.7387L37.9644 24.7331C39.1651 24.2262 40.4823 24.2105 41.6685 24.6915L48.8613 27.5988C49.0671 27.6834 49.0636 27.9773 48.8557 28.0669Z" fill="white"/>
<path opacity="0.4" d="M5.62308 18.4695L5.5461 18.5357L5.584 18.5516C5.59521 18.5242 5.60918 18.4941 5.62308 18.4695ZM50.7793 27.5783L50.5893 27.5371C50.6351 27.5774 50.6835 27.6203 50.732 27.6633C50.7487 27.6359 50.7653 27.6084 50.7793 27.5783Z" fill="white"/>
<path opacity="0.4" d="M37.6939 24.0725L30.3473 27.1865C30.2325 27.226 30.157 27.167 30.1275 27.1374L43.3808 13.8841L43.3835 13.8813C43.4508 13.9486 43.4768 14.0517 43.432 14.1556C43.4319 14.1611 43.4291 14.1638 43.4264 14.1666L40.3713 21.3682C39.8479 22.58 38.8976 23.5356 37.6939 24.0725Z" fill="white"/>
<path opacity="0.4" d="M48.8607 28.0669L41.5962 31.1473C41.5223 31.1781 41.4513 31.2061 41.3747 31.2343C41.3419 31.2455 41.3064 31.2596 41.2681 31.2709C41.2326 31.285 41.1944 31.2963 41.1616 31.3076C41.107 31.3246 41.0551 31.3388 41.0032 31.353C40.9841 31.3614 40.965 31.3644 40.9458 31.3727C40.8803 31.3899 40.8121 31.4043 40.7466 31.4214C40.7438 31.4241 40.7357 31.4215 40.7329 31.4243C40.4437 31.4876 40.1467 31.5265 39.8472 31.5356C39.8418 31.5356 39.8363 31.5357 39.8336 31.5385C39.2673 31.5561 38.705 31.473 38.1603 31.2864C38.0708 31.2575 37.9841 31.2259 37.8948 31.1916L33.1769 29.3051L32.9955 29.2338L30.0543 28.0553L49.0161 27.8147C49.0231 27.9153 48.9728 28.0193 48.8607 28.0669Z" fill="white"/>
<path opacity="0.4" d="M29.2124 26.7672L29.4178 8.2494C29.5186 8.24003 29.6215 8.28778 29.6664 8.39882L29.6718 8.40419L32.5445 15.524C33.0332 16.7563 33.0197 18.1089 32.5042 19.3505C32.4958 19.3642 32.4903 19.3752 32.4874 19.3888L29.4155 26.6287L29.4182 26.6314C29.3623 26.7518 29.256 26.7667 29.2124 26.7672Z" fill="white"/>
<path opacity="0.4" d="M28.2887 27.1593L15.3435 14.2197C15.4124 14.1508 15.5189 14.1196 15.6246 14.1592C15.6272 14.1619 15.6299 14.1646 15.6327 14.1618L22.7659 17.048C23.9817 17.5532 24.9201 18.4971 25.4254 19.7075C25.4307 19.7183 25.4359 19.7346 25.4412 19.7508L28.3433 26.9165C28.3881 27.0384 28.3218 27.1263 28.2915 27.1566L28.2887 27.1593Z" fill="white"/>
<path opacity="0.4" d="M28.2043 28.0453L9.37281 28.3062C9.37399 28.2082 9.42684 28.1123 9.53347 28.0702L9.54167 28.0674L16.7323 25.0179C17.9713 24.4996 19.3239 24.4861 20.5508 24.9694C20.5671 24.9747 20.5779 24.98 20.5942 24.9852L27.7654 27.8819L27.9089 27.9427C28.0064 27.9797 28.1039 28.0166 28.2043 28.0453Z" fill="white"/>
<path opacity="0.4" d="M8.46159 27.3883C8.20719 27.2716 8.02197 27.0589 7.94358 26.7877L5.5764 18.8074C5.55291 18.7233 5.55671 18.6335 5.5849 18.5515L5.547 18.5356L5.62398 18.4694C5.6628 18.409 5.71789 18.354 5.78635 18.3178L5.85206 18.2843L13.2362 14.3045C13.4882 14.1709 13.7715 14.1457 14.0398 14.2378L11.2591 20.7939L11.2479 20.8212L8.46159 27.3883Z" fill="white"/>
<path opacity="0.4" d="M43.389 12.5799L36.8948 9.95815L30.3655 7.31779C30.4911 7.05777 30.7083 6.8674 30.9788 6.77981L39.018 4.22627C39.1136 4.19519 39.2142 4.20215 39.2981 4.24196C39.3496 4.26039 39.3928 4.28709 39.4304 4.32474C39.4573 4.35163 39.4869 4.38121 39.5028 4.41911L43.3415 11.7777C43.4691 12.0265 43.4847 12.312 43.389 12.5799Z" fill="white"/>
<path opacity="0.4" d="M17.9398 23.503L11.2477 20.8211L5.58473 18.5513L5.54682 18.5355L5.62381 18.4692L5.85189 18.2842L13.236 14.3044C13.488 14.1707 13.7713 14.1456 14.0396 14.2376C14.1778 14.2877 14.3047 14.3651 14.4042 14.4645C14.493 14.5533 14.5651 14.664 14.6154 14.7858L17.4803 21.8758L17.9401 23.0186C18.0063 23.1784 18.0015 23.3499 17.9398 23.503Z" fill="white"/>
<path opacity="0.4" d="M43.3891 12.58C43.2879 12.8479 43.0895 13.0571 42.8269 13.1691L35.6663 16.2046L34.5094 16.6947C34.3589 16.7591 34.1983 16.7637 34.0547 16.7137L36.8949 9.95826L39.2982 4.24207C39.3497 4.26051 39.3929 4.2872 39.4306 4.32485C39.4575 4.35174 39.487 4.38132 39.5029 4.41922L43.3416 11.7778C43.4692 12.0266 43.4848 12.3122 43.3891 12.58Z" fill="white"/>
<path opacity="0.4" d="M23.6517 14.4197L15.3618 12.9162C15.2697 12.6479 15.2949 12.3646 15.4285 12.1126L19.4445 4.66002C19.4863 4.5806 19.5496 4.5227 19.6262 4.48368L19.711 4.45273C19.7847 4.4328 19.8609 4.43189 19.9341 4.4555L27.9144 6.81724C28.0717 6.86434 28.2095 6.94705 28.3224 7.05999C28.4004 7.13797 28.4673 7.23242 28.515 7.3407L23.6517 14.4197Z" fill="white"/>
<path opacity="0.4" d="M50.4765 26.2784C50.3916 26.5516 50.1985 26.7716 49.9412 26.8944L42.9953 22.229L42.9926 22.2263L44.6764 13.8737C44.947 13.7752 45.2325 13.7908 45.4786 13.9212L52.8345 17.7572C52.9454 17.813 53.0176 17.9128 53.0435 18.0268C53.059 18.0974 53.0554 18.1709 53.0328 18.2419L50.4765 26.2784Z" fill="white"/>
<path opacity="0.4" d="M50.4765 26.2784C50.3916 26.5516 50.1985 26.7716 49.9412 26.8944L42.9953 22.229L42.9926 22.2263L44.6764 13.8737C44.947 13.7752 45.2325 13.7908 45.4786 13.9212L52.8345 17.7572C52.9454 17.813 53.0176 17.9128 53.0435 18.0268C53.059 18.0974 53.0554 18.1709 53.0328 18.2419L50.4765 26.2784Z" fill="#FAD9A1"/>
<path opacity="0.4" d="M24.6241 16.8138L23.6513 14.4198L19.6258 4.48377L19.7106 4.45282C19.7843 4.43289 19.8605 4.43198 19.9337 4.4556L27.914 6.81733C28.0713 6.86443 28.2091 6.94714 28.322 7.06008C28.4 7.13806 28.4669 7.23251 28.5146 7.34079C28.6313 7.59519 28.636 7.88086 28.5241 8.14344L24.9985 16.4555C24.9229 16.6279 24.7854 16.7547 24.6241 16.8138Z" fill="white"/>
<path opacity="0.4" d="M49.942 26.895C49.6848 27.0179 49.3989 27.0294 49.1389 26.9237L40.9062 23.5935C40.741 23.5274 40.62 23.401 40.5593 23.2466L42.9934 22.2269L42.9961 22.2296L53.0443 18.0274C53.0598 18.098 53.0562 18.1715 53.0335 18.2425L50.4773 26.2791C50.3924 26.5522 50.1993 26.7722 49.942 26.895Z" fill="#FFFACC" fill-opacity="0.79"/>
<path d="M50.8408 27.2941L53.6347 18.5037C53.8325 17.8918 53.5682 17.2364 53.0057 16.9438L45.2063 12.8737C44.7358 12.629 44.3593 12.2525 44.12 11.7873L40.0526 3.98519C39.9887 3.86622 39.911 3.76647 39.8195 3.67504C39.4807 3.33622 38.9734 3.20351 38.4927 3.35622L29.9699 6.06522C29.4509 6.22926 28.9093 6.23847 28.4077 6.08936L19.9392 3.58108C19.3373 3.3978 18.6754 3.67785 18.3666 4.24484L14.1112 12.1466C13.8524 12.6205 13.4668 13.0061 12.9957 13.2621L5.09395 17.5175C4.52702 17.8209 4.24697 18.4828 4.43019 19.0901L7.01699 27.8188C7.18421 28.3992 7.61662 28.8757 8.17992 29.103L16.1743 32.3381C16.2285 32.3592 16.2854 32.3775 16.3315 32.3906L16.5971 32.4799C16.6459 32.4957 16.6975 32.5087 16.7572 32.5243L16.8901 32.5581C16.9281 32.5685 16.9715 32.5789 17.0122 32.5865L17.1045 32.6072C18.2393 32.8331 19.4082 32.7075 20.4886 32.2456L25.3931 30.1323C25.5326 30.0735 29.5405 28.2953 29.5993 28.1558C29.6554 28.0191 29.148 28.2576 29.0924 28.1249C29.0424 27.9867 28.9248 27.6741 28.7894 27.6213C28.6539 27.5685 25.1148 29.0553 24.9808 29.1141L20.0106 31.2553C19.4227 31.4937 18.8172 31.6098 18.2078 31.6007L18.137 31.6016C17.8785 31.5965 17.6094 31.5698 17.338 31.5132C17.2674 31.4977 17.2022 31.4876 17.129 31.4694L17.0151 31.4381C16.9879 31.433 16.969 31.4251 16.9473 31.4199L16.9066 31.4068C16.9066 31.4068 16.8741 31.3963 16.8497 31.3884L16.6735 31.3279C16.6302 31.3121 16.5868 31.2963 16.5408 31.2778L9.19356 28.3098L16.5265 25.1987C17.7107 24.7029 19.0171 24.6872 20.2008 25.1493L20.2413 25.1678L27.5615 28.1253C28.42 28.4715 29.4106 28.4596 30.2777 28.0928L37.7665 24.9172C38.918 24.4272 40.1808 24.4121 41.3237 24.8719L48.6492 27.8347L41.1932 30.999C41.1412 31.0187 41.0893 31.0383 41.0401 31.0552L40.9172 31.0975C40.9172 31.0975 40.8898 31.1087 40.8406 31.1257L40.6932 31.1655L40.3849 31.2318L40.3656 31.2511L40.3383 31.2569C40.0928 31.3088 39.8367 31.3391 39.5753 31.3476L39.4419 31.3519C38.9358 31.3526 38.4306 31.2715 37.9455 31.1059C37.8641 31.0797 37.7774 31.048 37.6962 31.0164L29.8747 27.8804C29.6148 27.7747 29.2286 27.892 29.0924 28.1249C28.9564 28.347 28.7398 28.1226 28.9173 28.3001C28.9711 28.3538 28.984 28.4108 29.0517 28.4345L37.2593 32.0448C38.3236 32.4756 39.4844 32.5733 40.6112 32.3285L40.6848 32.3249L40.7013 32.3084L40.7696 32.2885C40.7996 32.28 40.8351 32.2714 40.8624 32.2656C40.8869 32.2626 40.9115 32.2541 40.9579 32.24L41.1819 32.172C41.2092 32.1608 41.2392 32.1522 41.2748 32.1382L41.4852 32.0622C41.5426 32.0425 41.6028 32.02 41.6574 31.9976L49.6441 28.6092C50.2185 28.3629 50.6542 27.8842 50.8408 27.2941ZM30.7619 6.96735L38.8011 4.41381C38.8885 4.39099 38.9698 4.41723 39.0451 4.49253L39.0584 4.51686L42.8944 11.8727C43.0009 12.0674 43.0172 12.2985 42.9411 12.5144C42.8569 12.7331 42.697 12.9037 42.4863 12.996L34.1688 16.5217C34.0567 16.5693 33.9315 16.5708 33.815 16.5259C33.7581 16.5021 33.7095 16.47 33.6665 16.427C33.6262 16.3867 33.5914 16.3354 33.5676 16.2785L30.2428 8.05118C30.161 7.83718 30.1692 7.6085 30.2669 7.40323C30.3701 7.19246 30.5461 7.03797 30.7619 6.96735ZM19.3429 4.75291C19.393 4.65979 19.4969 4.61501 19.6027 4.64367L27.5858 7.00266C27.8081 7.07075 27.9777 7.22383 28.0678 7.42957C28.1634 7.62979 28.1687 7.86104 28.0764 8.07712L24.5509 16.3838C24.4473 16.6218 24.1765 16.7366 23.9436 16.6468L15.7082 13.3139C15.6107 13.2716 15.527 13.2154 15.4544 13.1428C15.3738 13.0621 15.315 12.9649 15.2729 12.8511C15.202 12.637 15.221 12.4136 15.3269 12.2055L19.3429 4.75291ZM17.2356 23.7044L8.92079 27.2273C8.71015 27.3196 8.4789 27.3142 8.2733 27.2133C8.18666 27.1762 8.11111 27.1227 8.04657 27.0582C7.95783 26.9694 7.89113 26.8587 7.85728 26.7312L5.48734 18.7536C5.45861 18.6533 5.51166 18.5411 5.60478 18.491L13.0546 14.4778C13.26 14.3692 13.4834 14.3502 13.6975 14.4211C13.9116 14.4974 14.0731 14.6479 14.1657 14.8617L17.4932 23.0972C17.5856 23.3329 17.4708 23.6036 17.2356 23.7044ZM20.6891 24.1393L20.6538 24.1261C20.0581 23.8774 19.5317 23.5273 19.0934 23.089C18.6551 22.6506 18.2995 22.1188 18.0563 21.523L15.2444 14.5468L15.3986 14.3925L22.41 17.2285C23.5743 17.7153 24.4859 18.6268 24.9699 19.7939L27.8243 26.8568L27.8656 27.0413L20.6891 24.1393ZM26.0249 19.4112C26.0143 19.3895 26.0037 19.3625 25.9984 19.3516C25.5312 18.1463 25.5578 16.8343 26.0591 15.6446L29.1589 8.34445L32.0926 15.6023C32.5574 16.7832 32.5473 18.084 32.0569 19.2682C32.0429 19.2983 32.0346 19.312 32.0345 19.3229L28.9374 26.6203L26.0249 19.4112ZM37.3433 23.8991L29.9557 27.0326L33.0751 19.6805C33.5928 18.4906 34.5374 17.5568 35.7327 17.0499L43.0355 13.9528L39.9215 21.2994C39.4205 22.4564 38.506 23.3817 37.3433 23.8991ZM49.5905 26.7213C49.3878 26.8272 49.1565 26.8327 48.9425 26.7509L40.7097 23.4207C40.6502 23.3942 40.6043 23.3593 40.5613 23.3163C40.521 23.276 40.4889 23.2274 40.4678 23.1732C40.4202 23.0595 40.4217 22.9343 40.472 22.8194L44.0003 14.5045C44.0872 14.294 44.2551 14.1368 44.4683 14.0581C44.6869 13.9793 44.9208 13.9928 45.1155 14.0993L52.4768 17.9352C52.5012 17.9431 52.52 17.9619 52.5308 17.9727C52.5872 18.0292 52.6053 18.1133 52.5826 18.1898L50.0208 26.2318C49.984 26.3547 49.9174 26.4643 49.8265 26.5552C49.7521 26.6296 49.6753 26.6849 49.5905 26.7213Z" fill="white"/>
<path opacity="0.38" d="M50.4516 26.3146C50.3667 26.5877 50.1736 26.8077 49.9163 26.9305L42.9704 22.2651L42.9677 22.2624L44.6515 13.9098C44.9221 13.8113 45.2076 13.8269 45.4537 13.9573L52.8096 17.7933C52.9205 17.8491 52.9927 17.9489 53.0186 18.0629C53.0341 18.1335 53.0305 18.207 53.0079 18.278L50.4516 26.3146Z" fill="#FFFA87" fill-opacity="0.19"/>
<defs>
<linearGradient id="paint0_linear_209_394" x1="52.1988" y1="11.8109" x2="6.07203" y2="23.6546" gradientUnits="userSpaceOnUse">
<stop offset="0.1" stop-color="#FFF42F"/>
<stop offset="0.3125" stop-color="#FFA232"/>
<stop offset="0.46875" stop-color="#F450B2"/>
<stop offset="0.71" stop-color="#3FCBFF"/>
<stop offset="0.96" stop-color="#D0D81D"/>
</linearGradient>
</defs>
</svg>
