<svg width="150" height="150" viewBox="0 0 150 150" fill="none" xmlns="http://www.w3.org/2000/svg">
<g opacity="0.75" clip-path="url(#clip0_151_141)">
<path d="M150 75C150 33.5786 116.421 0 75 0C33.5786 0 0 33.5786 0 75C0 116.421 33.5786 150 75 150C116.421 150 150 116.421 150 75Z" fill="#743BD6"/>
<path d="M95.3194 32.8125L69.0159 47.947V95.183L54.5034 103.612L39.9017 95.1764V78.3122L54.5034 69.9586L63.892 75.4134V61.7691L54.4214 56.3827L28.125 71.6878V101.964L54.51 117.188L80.8064 101.964V54.735L95.408 46.2996L110.002 54.735V71.5242L95.408 80.0348L85.9373 74.5317V88.1077L95.3194 93.5288L121.875 78.3938V47.947L95.3194 32.8125Z" fill="white"/>
</g>
<defs>
<clipPath id="clip0_151_141">
<rect width="150" height="150" fill="white"/>
</clipPath>
</defs>
</svg>
